<svg id="instagram_1_" data-name="instagram (1)" xmlns="http://www.w3.org/2000/svg" width="29.53" height="29.53" viewBox="0 0 29.53 29.53">
  <path id="Path_585" data-name="Path 585" d="M20.733,0H8.8A8.807,8.807,0,0,0,0,8.8V20.733a8.807,8.807,0,0,0,8.8,8.8H20.733a8.807,8.807,0,0,0,8.8-8.8V8.8A8.807,8.807,0,0,0,20.733,0Zm5.826,20.733a5.826,5.826,0,0,1-5.826,5.826H8.8a5.826,5.826,0,0,1-5.826-5.826V8.8A5.826,5.826,0,0,1,8.8,2.971H20.733A5.826,5.826,0,0,1,26.559,8.8V20.733Z" fill="#233342"/>
  <path id="Path_586" data-name="Path 586" d="M140.637,133a7.637,7.637,0,1,0,7.637,7.637A7.646,7.646,0,0,0,140.637,133Zm0,12.3a4.667,4.667,0,1,1,4.667-4.667A4.667,4.667,0,0,1,140.637,145.3Z" transform="translate(-125.873 -125.873)" fill="#233342"/>
  <ellipse id="Ellipse_1" data-name="Ellipse 1" cx="1.83" cy="1.83" rx="1.83" ry="1.83" transform="translate(20.587 5.355)" fill="#233342"/>
</svg>
