<svg id="twitter" xmlns="http://www.w3.org/2000/svg" width="29.53" height="24.168" viewBox="0 0 29.53 24.168">
  <path id="Path_587" data-name="Path 587" d="M11.017,24.172A25.338,25.338,0,0,1,7.1,23.862,18.36,18.36,0,0,1,1.75,21.913L0,20.957l1.894-.623c2.071-.681,3.33-1.1,4.89-1.765A6.5,6.5,0,0,1,3.44,14.7L3,13.357l.361.055A6.561,6.561,0,0,1,2.538,12.4a6.229,6.229,0,0,1-1.057-3.7l.083-1.168.7.271A6.534,6.534,0,0,1,1.63,6.022a6.756,6.756,0,0,1,.72-4.548L2.958.356l.814.978A14.989,14.989,0,0,0,13.483,6.8a5.808,5.808,0,0,1,.353-3.085,5.776,5.776,0,0,1,2.349-2.693A7.055,7.055,0,0,1,20.279.018,6.538,6.538,0,0,1,24.3,1.675a13.444,13.444,0,0,0,1.471-.491c.323-.122.688-.259,1.146-.417L28.6.186,27.5,3.328c.073-.006.147-.011.226-.015l1.8-.082L28.465,4.687c-.061.083-.077.107-.1.139-.086.129-.193.29-1.654,2.242A2.753,2.753,0,0,0,26.2,8.861a16.953,16.953,0,0,1-.925,6.819,12.064,12.064,0,0,1-3.239,4.8,14.3,14.3,0,0,1-6.782,3.279,20.861,20.861,0,0,1-4.236.415Zm0,0" transform="translate(0 -0.004)" fill="#233342"/>
</svg>
