<svg xmlns="http://www.w3.org/2000/svg" width="191.14" height="33.67" viewBox="0 0 191.14 33.67">
  <g id="Group_647" data-name="Group 647" transform="translate(-358.925 -243.614)">
    <path id="Path_101" data-name="Path 101" d="M537.2,248.049a14.48,14.48,0,0,0-20.094.116,13.725,13.725,0,0,0-1.825,2.348,12.8,12.8,0,1,1,12.4,20.233,13.693,13.693,0,0,0,9.286-3.418,12.649,12.649,0,0,0,3.957-9.776,13.115,13.115,0,0,0-3.724-9.5" transform="translate(-32.937 -0.093)"/>
    <path id="Path_102" data-name="Path 102" d="M373.784,259.829l-4.694-11.637v-.466l-4.81,12.1Zm7.293,10.28h-3.337q-1.395-3.879-3.491-9.156H363.853l-3.8,9.156h-1.126l10.941-26.494h.347q.272.855.972,2.753,4.382,10.939,9.891,23.741" transform="translate(0 0)" fill="#ba932e"/>
    <path id="Path_103" data-name="Path 103" d="M410.159,268.892l-.463,1.32H394.6V244.1h2.948l.039,25.02a123.7,123.7,0,0,0,12.568-.233" transform="translate(-7.516 -0.103)" fill="#ba932e"/>
    <path id="Path_104" data-name="Path 104" d="M435.247,263.191a5.968,5.968,0,0,0-1.823-4.694,7.1,7.1,0,0,0-4.81-1.513q-.581,0-1.783.038h-1.785v12.026q1.551.116,2.755.117,7.447,0,7.447-5.974M433.54,250.5a4.716,4.716,0,0,0-3.219-4.81,15.906,15.906,0,0,0-5.276-.658v11.249q4.538,0,6.516-1.3t1.979-4.482m4.965,12.18a6.621,6.621,0,0,1-2.793,5.7,10.584,10.584,0,0,1-6.362,1.822h-7.177V244.1h7.293a7.733,7.733,0,0,1,5.316,1.786,5.467,5.467,0,0,1,1.86,4.189,5.908,5.908,0,0,1-1.434,3.841,6.1,6.1,0,0,1-4,2.249q7.295.349,7.293,6.517" transform="translate(-13.323 -0.103)"/>
    <path id="Path_105" data-name="Path 105" d="M473.482,244.1q0,1.553-.156,13.073-.116,8.65.039,13.034h-2.445c0-.077-.072-.816-.213-2.212s-.214-2.456-.214-3.18q-2.987,5.9-8.456,5.895a9.587,9.587,0,0,1-7.35-2.832,10.656,10.656,0,0,1-2.658-7.6V244.1h3.026v16.332a8.986,8.986,0,0,0,1.939,6.013,7.015,7.015,0,0,0,5.626,2.4,7.485,7.485,0,0,0,5.857-2.52,8.793,8.793,0,0,0,2.134-6.053V244.1Z" transform="translate(-19.613 -0.103)"/>
    <path id="Path_106" data-name="Path 106" d="M507.478,270.212h-3.413q-3.571-5.9-6.945-11.794h-2.753l.31-.31a7.738,7.738,0,0,0,5.547-2.017,6.406,6.406,0,0,0,2.017-4.81,5.49,5.49,0,0,0-1.783-4.188,8.137,8.137,0,0,0-5.74-1.9c-.364,0-.727.013-1.087.039l-.2.233v24.748h-2.948V244.1h5.7a9.719,9.719,0,0,1,6.672,2.133A6.209,6.209,0,0,1,505,251.011q0,5.428-5,7.02,1.825,3.454,7.487,12.181" transform="translate(-27.714 -0.103)"/>
    <path id="Path_107" data-name="Path 107" d="M577.414,244.1q0,1.553-.156,13.073-.115,8.65.04,13.034h-2.445c0-.077-.071-.816-.212-2.212s-.214-2.456-.214-3.18q-2.987,5.9-8.456,5.895a9.589,9.589,0,0,1-7.351-2.832,10.655,10.655,0,0,1-2.657-7.6V244.1h3.026v16.332a8.986,8.986,0,0,0,1.939,6.013,7.015,7.015,0,0,0,5.627,2.4,7.486,7.486,0,0,0,5.857-2.52,8.792,8.792,0,0,0,2.132-6.053V244.1Z" transform="translate(-41.506 -0.103)"/>
    <path id="Path_108" data-name="Path 108" d="M598.953,244.1v21.568a13.868,13.868,0,0,1-1.823,7.293,9.249,9.249,0,0,1-2.869,2.91A9.544,9.544,0,0,1,591,277.388v-.309a8.787,8.787,0,0,0,3.995-3.8,13.753,13.753,0,0,0,1.123-6.246l-.038-22.925Z" transform="translate(-48.888 -0.103)"/>
  </g>
</svg>
